<?xml version="1.0" encoding="utf-8"?>
<!-- Generator: Adobe Illustrator 16.0.0, SVG Export Plug-In . SVG Version: 6.00 Build 0)  -->
<!DOCTYPE svg PUBLIC "-//W3C//DTD SVG 1.1//EN" "http://www.w3.org/Graphics/SVG/1.1/DTD/svg11.dtd">
<svg version="1.1" id="Layer_1" xmlns="http://www.w3.org/2000/svg" xmlns:xlink="http://www.w3.org/1999/xlink" x="0px" y="0px"
	 width="300px" height="930px" viewBox="350 0 300 930" enable-background="new 350 0 300 930" xml:space="preserve">
<metadata><?xpacket begin="﻿" id="W5M0MpCehiHzreSzNTczkc9d"?>
<x:xmpmeta xmlns:x="adobe:ns:meta/" x:xmptk="Adobe XMP Core 5.3-c011 66.145661, 2012/02/06-14:56:27        ">
   <rdf:RDF xmlns:rdf="http://www.w3.org/1999/02/22-rdf-syntax-ns#">
      <rdf:Description rdf:about=""
            xmlns:xmp="http://ns.adobe.com/xap/1.0/"
            xmlns:xmpGImg="http://ns.adobe.com/xap/1.0/g/img/">
         <xmp:CreatorTool>Adobe Illustrator CS6 (Macintosh)</xmp:CreatorTool>
         <xmp:CreateDate>2017-01-25T10:55:34-05:00</xmp:CreateDate>
         <xmp:ModifyDate>2017-01-25T10:55:34-05:00</xmp:ModifyDate>
         <xmp:MetadataDate>2017-01-25T10:55:34-05:00</xmp:MetadataDate>
         <xmp:Thumbnails>
            <rdf:Alt>
               <rdf:li rdf:parseType="Resource">
                  <xmpGImg:width>84</xmpGImg:width>
                  <xmpGImg:height>256</xmpGImg:height>
                  <xmpGImg:format>JPEG</xmpGImg:format>
                  <xmpGImg:image>/9j/4AAQSkZJRgABAgEASABIAAD/7QAsUGhvdG9zaG9wIDMuMAA4QklNA+0AAAAAABAASAAAAAEA&#xA;AQBIAAAAAQAB/+4ADkFkb2JlAGTAAAAAAf/bAIQABgQEBAUEBgUFBgkGBQYJCwgGBggLDAoKCwoK&#xA;DBAMDAwMDAwQDA4PEA8ODBMTFBQTExwbGxscHx8fHx8fHx8fHwEHBwcNDA0YEBAYGhURFRofHx8f&#xA;Hx8fHx8fHx8fHx8fHx8fHx8fHx8fHx8fHx8fHx8fHx8fHx8fHx8fHx8fHx8f/8AAEQgBAABUAwER&#xA;AAIRAQMRAf/EAaIAAAAHAQEBAQEAAAAAAAAAAAQFAwIGAQAHCAkKCwEAAgIDAQEBAQEAAAAAAAAA&#xA;AQACAwQFBgcICQoLEAACAQMDAgQCBgcDBAIGAnMBAgMRBAAFIRIxQVEGE2EicYEUMpGhBxWxQiPB&#xA;UtHhMxZi8CRygvElQzRTkqKyY3PCNUQnk6OzNhdUZHTD0uIIJoMJChgZhJRFRqS0VtNVKBry4/PE&#xA;1OT0ZXWFlaW1xdXl9WZ2hpamtsbW5vY3R1dnd4eXp7fH1+f3OEhYaHiImKi4yNjo+Ck5SVlpeYmZ&#xA;qbnJ2en5KjpKWmp6ipqqusra6voRAAICAQIDBQUEBQYECAMDbQEAAhEDBCESMUEFURNhIgZxgZEy&#xA;obHwFMHR4SNCFVJicvEzJDRDghaSUyWiY7LCB3PSNeJEgxdUkwgJChgZJjZFGidkdFU38qOzwygp&#xA;0+PzhJSktMTU5PRldYWVpbXF1eX1RlZmdoaWprbG1ub2R1dnd4eXp7fH1+f3OEhYaHiImKi4yNjo&#xA;+DlJWWl5iZmpucnZ6fkqOkpaanqKmqq6ytrq+v/aAAwDAQACEQMRAD8A9U4q7FXYq7FXm/5u+bdD&#xA;isx5WuOU8961tcXcUV9Z2B+qQ3kD3ETS3F1ZMGlh5KFU7jrQYqwnQfMP5beVNfttW0HSJtJslhmi&#xA;1JBrOl3Hq+oYxEfQXVbjnw4k7LXwxV75DNFNEk0LrJFIoeORCGVlYVDKRsQRiq7FXYq7FXYq7FXY&#xA;q7FXYq+bNV/Kefzl5+803l7r72JS5EikmJU4PPcW0UYDRtukViv7W+Koa8/5x7sYdPuru284C6kt&#xA;7Z7tIYpLdmdFRpFK8YjswQ0OKvaPybtrm0/LrTLG4na5ewkvLJJmpUxWt7NBENgo+GONV6dsVZpi&#xA;rsVdirsVdirsVdirsVea+TP+U/1//jPH/wBROr4qq3X/ACjz/wDgP23/AFBX+Kp3+WH/ACiEf/Md&#xA;qn/dSuMVZVirsVdirsVdirsVdirHPN8bXF35dsDPPDbX2pPFdfVp5rZ3RNPu5gvqwNHIB6kSts3b&#xA;FWCWkbeU/MutItxp1zDO0YhW81W+iu4+E1zPWR/qty5JW94/3h6e+yq+61+B9OuLW2j0WF5bQ2UU&#xA;ja1fyiNPTeNPgewIPASt9+Kph5Z0NtHXypcpfSyXGp6tfNdrb315LYvFc2+oXaokErJFRWCfF6K/&#xA;EtcVel4q7FXYq7FXYq7FVC+v7GwtJLy+uIrS0hHKa4ndY40FaVZ2IUfTirGNQ13RNY1XyvLpOoW2&#xA;oxRaxKkslpNHOqP+ib5uLGMsAaGtDirJr+WSK35RnizPGnLY8RJIqFhXaoDV3xVTUSW91DEJXmSY&#xA;NyRyCV4ipcGlaVNCPcUoMVSvzN/x2vKf/bVl/wC6VfYqi9J82eVtZmMGkazY6jME9UxWlzDO3p1A&#xA;58Y2Y8asN/fFU1xV2KuxV2KuxVj/AJ8/5Rmf/jPZ/wDUXFiqQ6vp3mCLzol3Y29pdRi+jv0jkuxD&#xA;MwXTJrJk9MxuesvOvgMVdfSec729m1aOeC1tbT6lGukLewvbyj1pfrZmkMB4mSN41QeK4q1fx+Z9&#xA;TZLfTVtfL3GKaaSeyu4JJJCYG+rgr6H2PUZWJ8MVX3t95ru20O9fT7IrpN2Z55f0inGR2sp7YqCI&#xA;qA1uOXyGKq3l7Tp9M1TyZps7I09l5bu7eVozyQvE+mIxVtqrVdjirNsVdirsVdirsVY/58/5Rmf/&#xA;AIz2f/UXFiqKYOusInqW9GuPX4GWk1PqxioI+O+4r9rpiqEhWRbJmM9mTbpZRFhcHhW3l5Hm3D4e&#xA;VaKKHfFVKG1lkthZ+vaFvTElUnLHexEFePAfDU8uX8u+KosSuQb31bSgu/U/3o/d0+relx9Th9qu&#xA;9KdMVQSRmLzf5ciLKxj0TUVLIaqSJtOFVO1RirKMVdirsVdirsVY/wCfP+UZn/4z2f8A1FxYqim+&#xA;HWEj9a3+K49f0zLSb/eYx8RHx36cuvTFUJD8NkzfWLM/V0so+Qn+D9xLyq7cPh51oood8VUobf1L&#xA;YWn1q0P7sSckm5HexENePEfDvy5V+ziqLE1Qb317Ta79Sn1j93/vN6XH1OH2v2qU6Yqgkj9Pzf5c&#xA;j5K/DRNRXmhqppNpwqp7g4qyjFXYq7FXYq7FWLeetOt9Un8t6ZdPMLK81QrdRwTzWxkWLT7udFZ4&#xA;HjcgSxI9K9VHhiqTafdWvlzzPqtldTXhsFuobq1a5bUL5+LWIicRyOtxUep1/ebeGKoafzdqsdzW&#xA;ysVuNGs00qG6vGS8WQsbmUMUjNvU+mqKz0BoGxVrVPMeoNaR2OgWy385jlmmMsd5CqiHTzGVHK3F&#xA;S7rRd969MVTeDzppbol3IWjuWmFw1v8AV73iAbf0Spf6vWoO/wBnFUm0Py2mn6T5C1aWbURrbraW&#xA;149zf30u1xZl7iJ4ZpmQBpIVLLx6qPDFXp2KuxV2KuxV2Ksf8zf8dryn/wBtWX/ulX2KotjN+l0B&#xA;9f8Av6LQS+j6P1Ynen7r+98d64qhIWufqTcvrf2bP1qi458zL+/4ft/Z68NqYqpwtqP1cFfrX1v0&#xA;x9sTceP1IH9r4OXrf7KuKooFuJH+l/VPrdDtcep6f1ev/GXj6uKoLXDKYfKpm5et+kLf1OVeXL6t&#xA;LWte9cVZPirsVdirsVdirH/M3/Ha8p/9tWX/ALpV9iqLYzfpdAfX/v6LQS+j6P1Ynen7r+98d64q&#xA;hIWufqTcvrf2bP1qi458zL+/4ft/Z68NqYqpwtqP1cFfrX1v0x9sTceP1IH9r4OXrf7KuKooFuJH&#xA;+l/VPrdDtcep6f1ev/GXj6uKoLXDKYfKpm5et+kLf1OVeXL6tLWte9cVZPirsVdirsVdirH/ADN/&#xA;x2vKf/bVl/7pV9iqLYTfpdCfX/v6rQy+j6P1Yjen7r+98d64qhIVufqTcvrf2bP1qm458xL+/wCH&#xA;7f2evDamKqcK6j9XAX619b9MfbM3Hj9SA/a+Dl63+yriqKAbiT/pf1T63U73Hqen9Xp/xl4+riqC&#xA;1wSiHyqJuXrfpC39TlXly+rS1rXvXFWT4q7FXYq7FXYqx/zN/wAdryn/ANtWX/ulX2Koto5v0ujE&#xA;z/3/ACWjS+j6P1YruAfS/vex3rviqEhiuRZMGN3stmJqtcc+ay1n4b8/s9eGxGKqcMGo/Vwqm6+t&#xA;+mPtvNx4/UgvVjw5et/sq74qihG3EtW7+qfW+R+K49T0/q/HpX1ePq9vpxVBa4sqw+VVm5esNQtx&#xA;JyJLchbS1qT3rirJ8VdirsVdirsVY/5m/wCO15T/AO2rL/3Sr7FUU0J/TCO0LGT6xySbgSBD9WK0&#xA;9SlAPUr8NeuKoSG2pZMrWz8OFkLlPSb45ElrMeNKv8NKkVriqlDaXX1YLHBIl56Y/ecGU8PqIQL6&#xA;hAH99+zXrviqLEEFCRbN9R+t8zD6LU4fVuNfS41p6v8Ak9d8VQWtpIkHlVJQRKuoW4cHryFtLWv0&#xA;4qyjFXYq7FXYq7FWP+Zv+O15T/7asv8A3Sr7FUW1tOdXSY2xYCfkLqsdFi+rFOO7c6ep2A98VQkN&#xA;jdCyZGsG3WzEsNYf3rxy8pm+3xPw9Sx3xVTh0/UhbhVtHiufTA9blEDT6kI/T5K5bab6K7++KooW&#xA;cnEj9HkW31vn9U/c0Mf1fjXjz4U9TtX3xVBa4kscPlVJgRMmoW6yAkEhhbSg1IrXfFWT4q7FXYqw&#xA;zV9T83DzJdrpPO7tdONg0ulQpbB5YrhpPXYS3DxAMqpUDmMVWX+p/mDcXs17Y6Vd2dlZ/UPT0uU6&#xA;a0t56l0wv+Li5kVPStuLJykSreOKoDzRd+a7u9tNXNndaJY6JNbT20Vz9RlNxc3Ej2cqt6E1ywVb&#xA;e5P8u59sVZg1nKdXSY23Kk/MXX7v4Yvqxj47tz/vOwGKoSHTbhbJkaxP2bMSw/uf3rxS8pW+1xPw&#xA;/wAx3xVTh0u+FuEW0MVx6YHr1jG31IRenyVi20v0d8VRQsW4n/cfS3+t+r9U/c7p9X4V48uH957+&#xA;+KsZ81Q+ZZb7RbLTWdrjS7aPU/qMYgLTzQyxwPGZJmVB+6mkp8Y3pviqK1vU/wAwb/1P0LpV3pP1&#xA;awvJ0+tHTZPrN6npfVLYcLmfir/vOTHiBt8QxVrzFrfnSaCSaw0680C2s7S7urm7uv0dOHkijDQx&#xA;BYri5b4jyqeP04qyn65N+gvrlR6/1X1q025+ny6fPFWH2OsG/wDO2tWS6dcCK6RPq9xIbf0pv0Rc&#xA;JFdoAJWkFTdLx5oA2+Kpm3mu30a9TSJNLuj+8t2mmh+rejbrqt9LbWocGZHNXXf00agxVKfN73Gm&#xA;eXoLWLSppbm/ls7aK2tzbKWksxJezysXljTj6Ns2/LkTQUxVkljxv7iz1WK1PpXTJdxXDiPkkMlp&#xA;xCN8RYHk3QVGKrIdKlWyaM2I+zZrJD+6/etBLykb7XE7fzbnFVOHRroW4iW0EU/pgevWMbfUhD6d&#xA;VJbaT2piqKGn/CT+j6QfW/W+qUh3T6v6dePLh9vfrirFr3U5rfzfaaYbG4c/opdLe8QwejHdXYMs&#xA;StWVZaUtXqVQ02xVNta8023lO3nnl0i6ljlFxei2sxahkgs7eNppGEk8KfIKST4YqpeallsNB1SV&#xA;bB3luknsYli9EPPPqdykFruzoKBpRyLkUGKqv+JY/wDAP176jc+ty/RP6P8A3Hr/AFv61+jeFfV9&#xA;Gn1j9r1Kcd8VS2DTNN1C01Fb7T7G/W3vtWuI1v7ZbkKY512TkRx5V3OKo608v6FFptxaxaLpMVtq&#xA;EdhJPbx2MawyepMQBNGDSX0+qV6HfFUNbaDodkt3c2ejaVZzRPdWYntLGOCYBbd2LLIpqOVKEeGK&#xA;ph5VsXOm6HObblSC2kF18Hwx/UBFx3PP7fYCmKoqHSpVsmjNiPs2ayQ/uv3rQS8pG+1xO3825xVT&#xA;h0a6FuIltBFP6YHr1jG31IQ+nVSW2k9qYqihp/wk/o+kH1v1vqlId0+r+nXjy4fb364qx6DSre61&#xA;y/0u/tLW7jeHTI5YbyFbmINHBcNXgxAJBTY4qqaXo2h2Yubi10TSbYvYy8/q9jHEzAwQSMjsp+KN&#xA;jKar4UxVu28reXLXVZGg0HRYptPuLQxzxadFHIDK60ZGBqjJ1U+OKoX/AKYv/wAGv/xasVRGmzwx&#xA;22o+q8acNQ1WeL1BGeUkU44qPUDdeX7O+KplDd2rWk59aHjMtnJdELDRHuJirhvhpt251OKoc3dv&#xA;JFdcJYWkU3FrGiLEGMEdu7K44qG3K9jx9sVa8rQQCz0ItHGbg29tOkpMfMR/UBFxAJ9T7VegpTFU&#xA;RDa2i6fLWGH0olso7hA0HF3t5uTk/Fx3rtzIOKrLbTomiFtFHClz6KsJA0X939REAX4SXpyoenGn&#xA;fFUSI7D6ubkW8P1L656pg5QcafV/S/m9KvLf7WKpTYJFDrt/a3Dxxwtb6ZFLI3BlHCC4YU9QMn2k&#xA;A3GKo2z1GItcTLJC04sWkaNViqAtvbupPEBuJ9Q9TSlMVbiubJb5oY54GS1ntltCFgq/ruokpxUb&#xA;rX9inviqUf8ATF/+DX/4tWKovSb9rW21OlyLb/TtVlWvD43jnHFfjB/mOw3xVNYdXdrV3N8D8Fm0&#xA;r/uv3LXEpSRfs0Gw/ariqFk1aSe2u4zeiU87mBYR6XxRJbu6yfCA1SR1G2Ku8qpIum6GnqQcWgtr&#xA;jgZSJuP1ARUEfHfcV+10xVFQxzLZMxltCbdbOIkTnhW2l5Nzbh8NQdhQ74qpw2VxJbiz9a1LemJK&#xA;pMWbeyEFePAfDyNeXhiqKEkhU33q2nEXfq1+sH0+P1f0aepw+1XelMVSXTXaz8xX8L3CwKYNNhlu&#xA;FK8RxguD8LSAruyDqMVR1rrlw6zt9cWSRLJ5/R/d/CVgt5A9AOW5lbqaYqqJq7G+mhXURIkU1skG&#xA;8NZRMyiQGiitK/s0xVIf+mL/APBr/wDFqxVGaReyW1tqfG4+r/6fqsifY+OSOccE+MHryOw3xVNY&#xA;dUla2kc3orws2lf91+5aeUrKv2aCg/mrTFULNqsstreLJeBwGuYRH+7HKBLd3WXYA7kdQaYqknlj&#xA;zn5Ri0rR+fmLR0jSK3llD6hCsqkWKwFfTJ68v8rFUXF5x8ppbBT5j0P1Y0s40A1KHi31aUu5JpUV&#xA;B22OKqKeavKZtPqz+ZdDUcQeY1GE/F9T+rkUNNue9a9O2Koz/HHlL1PX/wARaJ6v1r1hH+koePD6&#xA;v6P2qVry3+ziqD8ta1pdxrmo/o/VbaeBIdNt7m8tJopo1KQXBpz+JRVlA3GKp3bazdOJ2+th5Es2&#xA;mENI/hZYIHD0A5btK3XbFV6arIb2aJdQEkcc1sluf3J9USsokFQu/Gv7NKYqkH/TF/8Ag1/+LViq&#xA;M0i7mt7bU+Fx9X/0/VXT7HxypOOCfGG61Ow3xVNYdRuGtpHa+NQlmZXpF+5eWUrMv2aCi/zVpiqX&#xA;apqFzNo+qRteGWqXkSw0i+KBbWRkk+FQ27AfENsVSHyL5/8AKcHlny5bz+Z9PgMNnZwS2j3VqtFX&#xA;T1Lcgx5giXY79dsVTSL8yPKZtfi826dzdLNmf63ZVRpJSJlHbZevIGmKqUf5meWRa+r/AIq055uA&#xA;HpG6s/8Alj9TnQENX1tvCu2Kor/lYvk7kYv8X6d6f1nh9Y+uWVfS+r8+v2KeptWntiqS+TtetNS8&#xA;6eY76z1KKW2ng0ZLi+t3ikQMLa6Zhz+OMHnQEYqyu21S+cTk3ZeVbNpRDSP4XEEDq9AobdpG67Yq&#xA;vTUpzezRrqBkiSa2S2P7k+qJGUSioT4uNf2emKpB/wBMX/4Nf/i1YqjNIuZ4bbU/SuTb/wCn6qyU&#xA;EZ5yrOPTT41apNTsOuKprDfXZtpGa+aoSzMz0h/cvJKROv2KCi9Q3TFULJe3kltdpJeNKOVyixER&#xA;Dlbi3cpJ8KBqFgPiBpirXlW5nGm6HCbkqDBbKLWkdGi+oB+W686ep3B9sVRUN9dGyZ2v22WzMs1I&#xA;f3TyS8Zl+xxHw9Qw2xVTh1DUjbhlu3lufTB9HjETT6kJPU4qgbeb6K7e2KooXknEn9IE231vh9b/&#xA;AHNBH9X5U5cOFPU709sVSXTLm4HmK/kluDbmW30361PRBSsFw2/NSq1cAdMVTC21DUmE9bt3mWza&#xA;QQ8YvhcQQMr0CBql3frt7bYqvS/ujezIuoNJCs1strtARKrsomAIT4uIO/HpiqQf9MX/AODX/wCL&#xA;ViqL0m6mgttT9O5Nt/p2qulBH8cqTj01+NW8TsOuKprDqFy1q7tfkkJZmV6Q/uXllKzL9ig+H+at&#xA;MVQsl/dS212j3pl+O5jWEiL4rdbd2ST4UDULAfEDTFWvKt3MNN0OE3RUGC2QWn7v4ovqAfluvP8A&#xA;vO4PtiqKh1C4ayZ21An4LIyzUh/dPLLxmX7HEfD/ADDbFVKHU782wdb1pbj0wfR4xE0+oiX1OKoG&#xA;3l+jtiqLF69D/uRJt/rfp/W/3G0f1bnx5cOH957V7Yqk2mXU/wDiG+kluTB61vpv1m4ogpWC4bfm&#xA;pRauB2xVHWup37LOTetJKtk8oh4xfC4gt2V6BA27O53236YqqJqNwb6aNdRMkSzWy239wRKsjKJQ&#xA;CE+Klf2emKpD/wBMX/4Nf/i1YqjNIuZ4bbU/SuTb/wCn6qyUEZ5yrOPTT41apNTsOuKprDfXZtpG&#xA;a+aoSzMz0h/cvJKROv2KCi9Q3TFULJe3kltdpJeNKOVyixERDlbi3cpJ8KBqFgPiBpirXlW5nGm6&#xA;HCbkqDBbKLWkdGi+oB+W686ep3B9sVRUN9dGyZ2v22WzMs1If3TyS8Zl+xxHw9Qw2xVTh1DUjbhl&#xA;u3lufTB9HjETT6kJPU4qgbeb6K7e2KooXknEn9IE231vh9b/AHNBH9X5U5cOFPU709sVSXTLm4Hm&#xA;K/kluDbmW30361PRBSsFw2/NSq1cAdMVTC21DUmE9bt3mWzaQQ8YvhcQQMr0CBql3frt7bYqvS/u&#xA;jezIuoNJCs1strtARKrsomAIT4uIO/HpiqQf9MX/AODX/wCLViqM0iSdbbU/TE/+9+qtH6CyH98J&#xA;x6fL0x89m2xVNYZbk20hYXVSlmZ6rPy5tKRP6e1fs9eGwGKoWSW7a2uw4uvtXKJ6izBPqwt3KV5D&#xA;j9qm5+LFWvKsk36N0NSJ/wC4tlWiy+j6P1ANuQPS/ve53rtiqKhluTZMWF3utmZqrcc+bS0n4bc/&#xA;s9eGwGKqcM+o/Vwyi6+t+mPtpNx4/Ug3Rhw5et/sq7YqihI3ErS7+qfW+J+G49T0/q/LrT1ePq9/&#xA;oxVJdMknPmK/M4m+O303636ayCT+4uDv6Y5j95SuKphbT6iROSLr1xZsw5pNx5iCArx5Dhz5s+w3&#xA;rXwxVektx9dmVReegs1sLPktxTizL6/IsNxT+fp2xVIP+mL/APBr/wDFqxVGaRJOttqfpif/AHv1&#xA;Vo/QWQ/vhOPT5emPns22KprDLcm2kLC6qUszPVZ+XNpSJ/T2r9nrw2AxVCyS3bW12HF19q5RPUWY&#xA;J9WFu5SvIcftU3PxYq15Vkm/RuhqRP8A3Fsq0WX0fR+oBtyB6X973O9dsVRUMtybJiwu91szNVbj&#xA;nzaWk/Dbn9nrw2AxVThn1H6uGUXX1v0x9tJuPH6kG6MOHL1v9lXbFUUJG4laXf1T63xPw3Hqen9X&#xA;5daerx9Xv9GKpLpkk58xX5nE3x2+m/W/TWQSf3Fwd/THMfvKVxVMLafUSJyRdeuLNmHNJuPMQQFe&#xA;PIcOfNn2G9a+GKr0luPrsyqLz0FmthZ8luKcWZfX5FhuKfz9O2KpB/0xf/g1/wDi1YqjNIM4ttT9&#xA;P1/979VMfoCT++9ceny9P6ftbYqmsLXP1aTl9arws/XqJ+XMyn1/T7/Z68NqYqhZGuzbXfP619q5&#xA;CeoJuH1b6u/CvL4ftU6/FirXlUzfo3QwfX/uLYLQS+j6P1AHen7r+98d64qioWufqTcvrf2bP1qi&#xA;458zL+/4ft/Z68NqYqpwtqP1cFfrX1v0x9sTceP1IH9r4OXrf7KuKooFuJH+l/VPrdDtcep6f1ev&#xA;/GXj6uKpLphn/wARX/r+tvb6b9b9MSep/cXHX0/j/vKVxVMLZtRpPX616/1NiOYm48/Qg48eXwc+&#xA;fPpvWuKr0a4+uzBfrnoCa2+p8hcU4ll9fly7U/n+jFUg/wCmL/8ABr/8WrFXeXtW0+8TU4bC+FxN&#xA;9c1WSOKzlLtyM6+k7LCSeO+xb4cVZDCtz9Wk5fWq8LP16mflzEp9f0+/2evDamKoWVLr6reCT61u&#xA;1zx9Qz8Pqpt34V5fDXlTr8WKpZofkuX/AA35fvNF1W7sb+GC1mJu7vUL61kUwUaN7V7uNCp5VHhQ&#xA;Yqnn1Lz/AP8AV50r/uFXP/eRxV31Lz//ANXnSv8AuFXP/eRxVDXflvzXqc9mmq65CNOt5jNcW+l2&#xA;95p0849GSNYzcx37sqB5FkIpuVAxVAaTpVvpvmrWoLd717Yiwa4Mlzd3cvExXIFHkkll48+OwNMV&#xA;TS2XUaT1+tev9TYDmZuPP0IOPHl8HPnz6b1rirUs/wBWnuLiaW5hskltmt5ZmnSNUDL65kLkAL/x&#xA;k28MVYv+nNF/wN6v6QtvS/xX/eetHx/5Sb1etaf3fx/6u/TFUx8q+XvLF15I8pzXtnW6XSLURSWw&#xA;mSXi9vCZKm24uVJVK12rTFUy/wALeTeDsYbpfT4clae/Vv3jcUopcMattsMVQOu+V/Kg0PUTFDdx&#xA;zC0naIyT38Y5LEzbGRwCdq0xVMPJ9jFqX5ceXYLmScLJpdizvBPNbS1FvGf72B45Bv1o2+Kr5/J+&#xA;hQ8QZ9XeR68Ik1fVSxp1/wCPqgG/U0GKqa+VdFDATnWrcMaK76xqRWp7Ex3j8f8AZUxVMtO8raZp&#xA;90t1BNfvIgIC3Go39zH8QpvFPPJGfpXFWIRaVpN/+ZHm6TVBM8dtbaQsKxy3CUMqzigSFlqWanbF&#xA;U8HlbydX4obqMUJ5Sz38a/CCx3d1HQE4q0fKnkpmjWWzuXX1I+KztftGX5jhyEjcD8dPtbYqkn1G&#xA;y/5WN6H1eP0Pr9fS4Lwr+ievGlMVTzyD/wAor5R/7YcH/Jm2xVNb7/eyX/ow/wCopsVQ/nP/AI4c&#xA;/wDxiuv+oOfFVn5ef8oB5Z/7ZVj/ANQyYqjYU1B9Qv5EmhVVkSKMNEzMEWJHoSJEH25GPTFVOwk1&#xA;XULKUzy23EzXNuyCB6FIp3hFf33dU3xVG6TJPJpVlJcMHneCJpnAoC5QFiAa9TirDNP/APJi+cP9&#xA;XQP+Jy4qyjzH/vGv/Pb/AKhZsVRep/7zJ/xnt/8Ak+mKsJ/8qZ/0ff8AdpxVD+TPO/lGDyj5XI1/&#xA;SBLb6RbwTwz38MTq5hh2I+M1BjIIOKppP548pyvNKfMOhq7fVfTT9JwkH0JjI/JqCnwnbY4qhfMn&#xA;nvyndaNdhtf0Uenb3DBY9Rhkdi1tJGFVaLuS/jirfkPz55Gg8jeXYJ/MWmRTRaZZpLE95bqystug&#xA;ZWUvUEHqMVTS0/MDyELi9J8yaUA0wKk3tvuPRjFR8fiMVUNB8/8AkSOxlV/Meloxu71gGvbcGjXc&#xA;rKd36EGoxVX0v8wPISaZaK3mTSlZYYwym9twQQg2Px4qxHT/ADn5Rbz95umj1/SgkseitBJLewpF&#xA;J6BmaQK4LVKjwHhirI7/AM8eU72IRN5i0OIASfENShfd4XjG1F7viqrcfmB5VnRIzr+hoolidmGq&#xA;QkhY5FdqDiKmi7b4qxr/ABV5Y/x1+lf0xZfov9I+n9f+sxfV+f6Jpx9Xlw5e1cVf/9k=</xmpGImg:image>
               </rdf:li>
            </rdf:Alt>
         </xmp:Thumbnails>
      </rdf:Description>
      <rdf:Description rdf:about=""
            xmlns:dc="http://purl.org/dc/elements/1.1/">
         <dc:format>image/svg+xml</dc:format>
      </rdf:Description>
      <rdf:Description rdf:about=""
            xmlns:xmpMM="http://ns.adobe.com/xap/1.0/mm/"
            xmlns:stRef="http://ns.adobe.com/xap/1.0/sType/ResourceRef#"
            xmlns:stEvt="http://ns.adobe.com/xap/1.0/sType/ResourceEvent#">
         <xmpMM:DocumentID>xmp.did:0180117407206811822A8014C1E8876A</xmpMM:DocumentID>
         <xmpMM:InstanceID>xmp.iid:0180117407206811822A8014C1E8876A</xmpMM:InstanceID>
         <xmpMM:OriginalDocumentID>xmp.did:5F28724618216811822AE0EE4E628744</xmpMM:OriginalDocumentID>
         <xmpMM:RenditionClass>proof:pdf</xmpMM:RenditionClass>
         <xmpMM:DerivedFrom rdf:parseType="Resource">
            <stRef:instanceID>uuid:391fca66-9ee1-4c41-9a96-6ebd9007c7a9</stRef:instanceID>
            <stRef:documentID>xmp.did:5F28724618216811822AE0EE4E628744</stRef:documentID>
            <stRef:originalDocumentID>xmp.did:5F28724618216811822AE0EE4E628744</stRef:originalDocumentID>
            <stRef:renditionClass>proof:pdf</stRef:renditionClass>
         </xmpMM:DerivedFrom>
         <xmpMM:History>
            <rdf:Seq>
               <rdf:li rdf:parseType="Resource">
                  <stEvt:action>saved</stEvt:action>
                  <stEvt:instanceID>xmp.iid:5F28724618216811822AE0EE4E628744</stEvt:instanceID>
                  <stEvt:when>2017-01-19T15:47:23-05:00</stEvt:when>
                  <stEvt:softwareAgent>Adobe Illustrator CS6 (Macintosh)</stEvt:softwareAgent>
                  <stEvt:changed>/</stEvt:changed>
               </rdf:li>
               <rdf:li rdf:parseType="Resource">
                  <stEvt:action>saved</stEvt:action>
                  <stEvt:instanceID>xmp.iid:0180117407206811822A8014C1E8876A</stEvt:instanceID>
                  <stEvt:when>2017-01-25T10:55:34-05:00</stEvt:when>
                  <stEvt:softwareAgent>Adobe Illustrator CS6 (Macintosh)</stEvt:softwareAgent>
                  <stEvt:changed>/</stEvt:changed>
               </rdf:li>
            </rdf:Seq>
         </xmpMM:History>
      </rdf:Description>
      <rdf:Description rdf:about=""
            xmlns:xmpTPg="http://ns.adobe.com/xap/1.0/t/pg/"
            xmlns:stDim="http://ns.adobe.com/xap/1.0/sType/Dimensions#"
            xmlns:xmpG="http://ns.adobe.com/xap/1.0/g/">
         <xmpTPg:NPages>1</xmpTPg:NPages>
         <xmpTPg:HasVisibleTransparency>False</xmpTPg:HasVisibleTransparency>
         <xmpTPg:HasVisibleOverprint>False</xmpTPg:HasVisibleOverprint>
         <xmpTPg:MaxPageSize rdf:parseType="Resource">
            <stDim:w>300.000000</stDim:w>
            <stDim:h>930.000000</stDim:h>
            <stDim:unit>Pixels</stDim:unit>
         </xmpTPg:MaxPageSize>
         <xmpTPg:PlateNames>
            <rdf:Seq>
               <rdf:li>Cyan</rdf:li>
               <rdf:li>Magenta</rdf:li>
               <rdf:li>Yellow</rdf:li>
               <rdf:li>Black</rdf:li>
            </rdf:Seq>
         </xmpTPg:PlateNames>
         <xmpTPg:SwatchGroups>
            <rdf:Seq>
               <rdf:li rdf:parseType="Resource">
                  <xmpG:groupName>Default Swatch Group</xmpG:groupName>
                  <xmpG:groupType>0</xmpG:groupType>
               </rdf:li>
            </rdf:Seq>
         </xmpTPg:SwatchGroups>
      </rdf:Description>
   </rdf:RDF>
</x:xmpmeta>
                                                                                                    
                                                                                                    
                                                                                                    
                                                                                                    
                                                                                                    
                                                                                                    
                                                                                                    
                                                                                                    
                                                                                                    
                                                                                                    
                                                                                                    
                                                                                                    
                                                                                                    
                                                                                                    
                                                                                                    
                                                                                                    
                                                                                                    
                                                                                                    
                                                                                                    
                                                                                                    
                           
<?xpacket end="w"?>
	</metadata>
<rect x="447.25" y="211.919" fill="none" stroke="#000000" stroke-miterlimit="10" width="10" height="18"/>
<rect x="447.25" y="239.919" fill="none" stroke="#000000" stroke-miterlimit="10" width="10" height="18"/>
<rect x="467.25" y="211.919" fill="none" stroke="#000000" stroke-miterlimit="10" width="10" height="18"/>
<rect x="467.25" y="239.919" fill="none" stroke="#000000" stroke-miterlimit="10" width="10" height="18"/>
<rect x="522.25" y="211.919" fill="none" stroke="#000000" stroke-miterlimit="10" width="10" height="18"/>
<rect x="522.25" y="239.919" fill="none" stroke="#000000" stroke-miterlimit="10" width="10" height="18"/>
<rect x="542.25" y="211.919" fill="none" stroke="#000000" stroke-miterlimit="10" width="10" height="18"/>
<rect x="542.25" y="239.919" fill="none" stroke="#000000" stroke-miterlimit="10" width="10" height="18"/>
<rect x="487.25" y="211.919" fill="none" stroke="#000000" stroke-miterlimit="10" width="10" height="18"/>
<rect x="487.25" y="239.919" fill="none" stroke="#000000" stroke-miterlimit="10" width="10" height="18"/>
<rect x="502.25" y="211.919" fill="none" stroke="#000000" stroke-miterlimit="10" width="10" height="18"/>
<rect x="502.25" y="239.919" fill="none" stroke="#000000" stroke-miterlimit="10" width="10" height="18"/>
<rect x="447.25" y="183.919" fill="none" stroke="#000000" stroke-miterlimit="10" width="10" height="18"/>
<rect x="467.25" y="183.919" fill="none" stroke="#000000" stroke-miterlimit="10" width="10" height="18"/>
<rect x="522.25" y="183.919" fill="none" stroke="#000000" stroke-miterlimit="10" width="10" height="18"/>
<rect x="542.25" y="183.919" fill="none" stroke="#000000" stroke-miterlimit="10" width="10" height="18"/>
<rect x="487.25" y="183.919" fill="none" stroke="#000000" stroke-miterlimit="10" width="10" height="18"/>
<rect x="494.75" y="66.919" fill="none" stroke="#000000" stroke-miterlimit="10" width="10" height="38"/>
<rect x="504.75" y="66.919" fill="none" stroke="#000000" stroke-miterlimit="10" width="8" height="38"/>
<rect x="486.75" y="66.919" fill="none" stroke="#000000" stroke-miterlimit="10" width="8" height="38"/>
<rect x="502.25" y="183.919" fill="none" stroke="#000000" stroke-miterlimit="10" width="10" height="18"/>
<polyline fill="none" stroke="#000000" stroke-width="3" stroke-miterlimit="10" points="567.25,246.919 567.25,153.919 
	552.25,153.919 552.25,173.919 522.25,173.919 522.25,163.919 512.25,163.919 512.25,173.919 487.25,173.919 487.25,163.919 
	477.25,163.919 477.25,173.919 447.25,173.919 447.25,153.919 432.25,153.919 432.25,246.919 "/>
<rect x="437.25" y="612.919" fill="none" stroke="#000000" stroke-width="3" stroke-miterlimit="10" width="125" height="28"/>
<rect x="367.25" y="510.919" fill="none" stroke="#000000" stroke-miterlimit="10" width="10" height="18"/>
<polyline fill="none" stroke="#000000" stroke-width="3" stroke-miterlimit="10" points="437.25,819.919 437.25,490.919 
	427.25,490.919 427.25,500.919 402.25,500.919 402.25,490.919 392.25,490.919 392.25,500.919 367.25,500.919 367.25,490.919 
	357.25,490.919 357.25,842.919 "/>
<polyline fill="none" stroke="#000000" stroke-width="3" stroke-miterlimit="10" points="432.25,490.919 432.25,452.919 
	422.25,452.919 422.25,462.919 402.25,462.919 402.25,452.919 392.25,452.919 392.25,462.919 372.25,462.919 372.25,452.919 
	362.25,452.919 362.25,490.919 "/>
<polyline fill="none" stroke="#000000" stroke-width="3" stroke-miterlimit="10" points="542.75,173.086 542.75,104.919 
	527.75,104.919 527.75,114.919 471.75,114.919 471.75,104.919 456.75,104.919 456.75,173.086 "/>
<rect x="382.25" y="510.919" fill="none" stroke="#000000" stroke-miterlimit="10" width="10" height="18"/>
<rect x="375.25" y="472.919" fill="none" stroke="#000000" stroke-miterlimit="10" width="10" height="18"/>
<rect x="409.25" y="472.919" fill="none" stroke="#000000" stroke-miterlimit="10" width="10" height="18"/>
<polyline fill="none" stroke="#000000" stroke-width="3" stroke-miterlimit="10" points="566.248,490.919 566.248,452.919 
	576.248,452.919 576.248,462.919 596.248,462.919 596.248,452.919 606.248,452.919 606.248,462.919 626.248,462.919 
	626.248,452.919 636.248,452.919 636.248,490.919 "/>
<rect x="613.248" y="472.919" fill="none" stroke="#000000" stroke-miterlimit="10" width="10" height="18"/>
<rect x="579.248" y="472.919" fill="none" stroke="#000000" stroke-miterlimit="10" width="10" height="18"/>
<rect x="402.25" y="510.919" fill="none" stroke="#000000" stroke-miterlimit="10" width="10" height="18"/>
<rect x="417.25" y="510.919" fill="none" stroke="#000000" stroke-miterlimit="10" width="10" height="18"/>
<rect x="367.25" y="538.919" fill="none" stroke="#000000" stroke-miterlimit="10" width="10" height="18"/>
<rect x="382.25" y="538.919" fill="none" stroke="#000000" stroke-miterlimit="10" width="10" height="18"/>
<rect x="402.25" y="538.919" fill="none" stroke="#000000" stroke-miterlimit="10" width="10" height="18"/>
<rect x="417.25" y="538.919" fill="none" stroke="#000000" stroke-miterlimit="10" width="10" height="18"/>
<rect x="367.25" y="566.919" fill="none" stroke="#000000" stroke-miterlimit="10" width="10" height="18"/>
<rect x="382.25" y="566.919" fill="none" stroke="#000000" stroke-miterlimit="10" width="10" height="18"/>
<rect x="402.25" y="566.919" fill="none" stroke="#000000" stroke-miterlimit="10" width="10" height="18"/>
<rect x="417.25" y="566.919" fill="none" stroke="#000000" stroke-miterlimit="10" width="10" height="18"/>
<rect x="367.25" y="594.919" fill="none" stroke="#000000" stroke-miterlimit="10" width="10" height="18"/>
<rect x="382.25" y="594.919" fill="none" stroke="#000000" stroke-miterlimit="10" width="10" height="18"/>
<rect x="402.25" y="594.919" fill="none" stroke="#000000" stroke-miterlimit="10" width="10" height="18"/>
<rect x="417.25" y="594.919" fill="none" stroke="#000000" stroke-miterlimit="10" width="10" height="18"/>
<rect x="367.25" y="622.919" fill="none" stroke="#000000" stroke-miterlimit="10" width="10" height="18"/>
<rect x="382.25" y="622.919" fill="none" stroke="#000000" stroke-miterlimit="10" width="10" height="18"/>
<rect x="402.25" y="622.919" fill="none" stroke="#000000" stroke-miterlimit="10" width="10" height="18"/>
<rect x="417.25" y="622.919" fill="none" stroke="#000000" stroke-miterlimit="10" width="10" height="18"/>
<rect x="367.25" y="650.919" fill="none" stroke="#000000" stroke-miterlimit="10" width="10" height="18"/>
<rect x="382.25" y="650.919" fill="none" stroke="#000000" stroke-miterlimit="10" width="10" height="18"/>
<rect x="402.25" y="650.919" fill="none" stroke="#000000" stroke-miterlimit="10" width="10" height="18"/>
<rect x="417.25" y="650.919" fill="none" stroke="#000000" stroke-miterlimit="10" width="10" height="18"/>
<rect x="367.25" y="678.919" fill="none" stroke="#000000" stroke-miterlimit="10" width="10" height="19"/>
<rect x="382.25" y="678.919" fill="none" stroke="#000000" stroke-miterlimit="10" width="10" height="19"/>
<rect x="402.25" y="678.919" fill="none" stroke="#000000" stroke-miterlimit="10" width="10" height="19"/>
<rect x="417.25" y="678.919" fill="none" stroke="#000000" stroke-miterlimit="10" width="10" height="19"/>
<rect x="367.25" y="707.919" fill="none" stroke="#000000" stroke-miterlimit="10" width="10" height="18"/>
<rect x="382.25" y="707.919" fill="none" stroke="#000000" stroke-miterlimit="10" width="10" height="18"/>
<rect x="402.25" y="707.919" fill="none" stroke="#000000" stroke-miterlimit="10" width="10" height="18"/>
<rect x="417.25" y="707.919" fill="none" stroke="#000000" stroke-miterlimit="10" width="10" height="18"/>
<rect x="367.25" y="735.919" fill="none" stroke="#000000" stroke-miterlimit="10" width="10" height="18"/>
<rect x="382.25" y="735.919" fill="none" stroke="#000000" stroke-miterlimit="10" width="10" height="18"/>
<rect x="402.25" y="735.919" fill="none" stroke="#000000" stroke-miterlimit="10" width="10" height="18"/>
<rect x="417.25" y="735.919" fill="none" stroke="#000000" stroke-miterlimit="10" width="10" height="18"/>
<rect x="367.25" y="763.919" fill="none" stroke="#000000" stroke-miterlimit="10" width="10" height="18"/>
<rect x="382.25" y="763.919" fill="none" stroke="#000000" stroke-miterlimit="10" width="10" height="18"/>
<rect x="402.25" y="763.919" fill="none" stroke="#000000" stroke-miterlimit="10" width="10" height="18"/>
<rect x="417.25" y="763.919" fill="none" stroke="#000000" stroke-miterlimit="10" width="10" height="18"/>
<rect x="367.25" y="791.919" fill="none" stroke="#000000" stroke-miterlimit="10" width="10" height="18"/>
<rect x="382.25" y="791.919" fill="none" stroke="#000000" stroke-miterlimit="10" width="10" height="18"/>
<rect x="402.25" y="791.919" fill="none" stroke="#000000" stroke-miterlimit="10" width="10" height="18"/>
<rect x="417.25" y="791.919" fill="none" stroke="#000000" stroke-miterlimit="10" width="10" height="18"/>
<rect x="367.25" y="819.919" fill="none" stroke="#000000" stroke-miterlimit="10" width="10" height="18"/>
<rect x="382.25" y="819.919" fill="none" stroke="#000000" stroke-miterlimit="10" width="10" height="18"/>
<rect x="402.25" y="819.919" fill="none" stroke="#000000" stroke-miterlimit="10" width="10" height="18"/>
<rect x="417.25" y="819.919" fill="none" stroke="#000000" stroke-miterlimit="10" width="10" height="18"/>
<rect x="572.25" y="510.919" fill="none" stroke="#000000" stroke-miterlimit="10" width="10" height="18"/>
<polyline fill="none" stroke="#000000" stroke-width="3" stroke-miterlimit="10" points="642.25,842.919 642.25,490.919 
	632.25,490.919 632.25,500.919 607.25,500.919 607.25,490.919 597.25,490.919 597.25,500.919 572.25,500.919 572.25,490.919 
	562.25,490.919 562.25,819.919 "/>
<rect x="587.25" y="510.919" fill="none" stroke="#000000" stroke-miterlimit="10" width="10" height="18"/>
<rect x="607.25" y="510.919" fill="none" stroke="#000000" stroke-miterlimit="10" width="10" height="18"/>
<rect x="622.25" y="510.919" fill="none" stroke="#000000" stroke-miterlimit="10" width="10" height="18"/>
<rect x="572.25" y="538.919" fill="none" stroke="#000000" stroke-miterlimit="10" width="10" height="18"/>
<rect x="587.25" y="538.919" fill="none" stroke="#000000" stroke-miterlimit="10" width="10" height="18"/>
<rect x="607.25" y="538.919" fill="none" stroke="#000000" stroke-miterlimit="10" width="10" height="18"/>
<rect x="622.25" y="538.919" fill="none" stroke="#000000" stroke-miterlimit="10" width="10" height="18"/>
<rect x="572.25" y="566.919" fill="none" stroke="#000000" stroke-miterlimit="10" width="10" height="18"/>
<rect x="587.25" y="566.919" fill="none" stroke="#000000" stroke-miterlimit="10" width="10" height="18"/>
<rect x="607.25" y="566.919" fill="none" stroke="#000000" stroke-miterlimit="10" width="10" height="18"/>
<rect x="622.25" y="566.919" fill="none" stroke="#000000" stroke-miterlimit="10" width="10" height="18"/>
<rect x="572.25" y="594.919" fill="none" stroke="#000000" stroke-miterlimit="10" width="10" height="18"/>
<rect x="587.25" y="594.919" fill="none" stroke="#000000" stroke-miterlimit="10" width="10" height="18"/>
<rect x="607.25" y="594.919" fill="none" stroke="#000000" stroke-miterlimit="10" width="10" height="18"/>
<rect x="622.25" y="594.919" fill="none" stroke="#000000" stroke-miterlimit="10" width="10" height="18"/>
<rect x="572.25" y="622.919" fill="none" stroke="#000000" stroke-miterlimit="10" width="10" height="18"/>
<rect x="587.25" y="622.919" fill="none" stroke="#000000" stroke-miterlimit="10" width="10" height="18"/>
<rect x="607.25" y="622.919" fill="none" stroke="#000000" stroke-miterlimit="10" width="10" height="18"/>
<rect x="622.25" y="622.919" fill="none" stroke="#000000" stroke-miterlimit="10" width="10" height="18"/>
<rect x="572.25" y="650.919" fill="none" stroke="#000000" stroke-miterlimit="10" width="10" height="18"/>
<rect x="587.25" y="650.919" fill="none" stroke="#000000" stroke-miterlimit="10" width="10" height="18"/>
<rect x="607.25" y="650.919" fill="none" stroke="#000000" stroke-miterlimit="10" width="10" height="18"/>
<rect x="622.25" y="650.919" fill="none" stroke="#000000" stroke-miterlimit="10" width="10" height="18"/>
<rect x="572.25" y="678.919" fill="none" stroke="#000000" stroke-miterlimit="10" width="10" height="19"/>
<rect x="587.25" y="678.919" fill="none" stroke="#000000" stroke-miterlimit="10" width="10" height="19"/>
<rect x="607.25" y="678.919" fill="none" stroke="#000000" stroke-miterlimit="10" width="10" height="19"/>
<rect x="622.25" y="678.919" fill="none" stroke="#000000" stroke-miterlimit="10" width="10" height="19"/>
<rect x="572.25" y="707.919" fill="none" stroke="#000000" stroke-miterlimit="10" width="10" height="18"/>
<rect x="587.25" y="707.919" fill="none" stroke="#000000" stroke-miterlimit="10" width="10" height="18"/>
<rect x="607.25" y="707.919" fill="none" stroke="#000000" stroke-miterlimit="10" width="10" height="18"/>
<rect x="622.25" y="707.919" fill="none" stroke="#000000" stroke-miterlimit="10" width="10" height="18"/>
<rect x="572.25" y="735.919" fill="none" stroke="#000000" stroke-miterlimit="10" width="10" height="18"/>
<rect x="587.25" y="735.919" fill="none" stroke="#000000" stroke-miterlimit="10" width="10" height="18"/>
<rect x="607.25" y="735.919" fill="none" stroke="#000000" stroke-miterlimit="10" width="10" height="18"/>
<rect x="622.25" y="735.919" fill="none" stroke="#000000" stroke-miterlimit="10" width="10" height="18"/>
<rect x="572.25" y="763.919" fill="none" stroke="#000000" stroke-miterlimit="10" width="10" height="18"/>
<rect x="587.25" y="763.919" fill="none" stroke="#000000" stroke-miterlimit="10" width="10" height="18"/>
<rect x="607.25" y="763.919" fill="none" stroke="#000000" stroke-miterlimit="10" width="10" height="18"/>
<rect x="622.25" y="763.919" fill="none" stroke="#000000" stroke-miterlimit="10" width="10" height="18"/>
<rect x="572.25" y="791.919" fill="none" stroke="#000000" stroke-miterlimit="10" width="10" height="18"/>
<rect x="587.25" y="791.919" fill="none" stroke="#000000" stroke-miterlimit="10" width="10" height="18"/>
<rect x="607.25" y="791.919" fill="none" stroke="#000000" stroke-miterlimit="10" width="10" height="18"/>
<rect x="622.25" y="791.919" fill="none" stroke="#000000" stroke-miterlimit="10" width="10" height="18"/>
<rect x="572.25" y="819.919" fill="none" stroke="#000000" stroke-miterlimit="10" width="10" height="18"/>
<rect x="587.25" y="819.919" fill="none" stroke="#000000" stroke-miterlimit="10" width="10" height="18"/>
<rect x="607.25" y="819.919" fill="none" stroke="#000000" stroke-miterlimit="10" width="10" height="18"/>
<rect x="622.25" y="819.919" fill="none" stroke="#000000" stroke-miterlimit="10" width="10" height="18"/>
<rect x="447.25" y="650.919" fill="none" stroke="#000000" stroke-miterlimit="10" width="10" height="18"/>
<rect x="447.25" y="678.919" fill="none" stroke="#000000" stroke-miterlimit="10" width="10" height="19"/>
<rect x="447.25" y="707.919" fill="none" stroke="#000000" stroke-miterlimit="10" width="10" height="18"/>
<rect x="447.25" y="735.919" fill="none" stroke="#000000" stroke-miterlimit="10" width="10" height="18"/>
<rect x="447.25" y="763.919" fill="none" stroke="#000000" stroke-miterlimit="10" width="10" height="18"/>
<rect x="447.25" y="791.919" fill="none" stroke="#000000" stroke-miterlimit="10" width="10" height="18"/>
<rect x="467.25" y="650.919" fill="none" stroke="#000000" stroke-miterlimit="10" width="10" height="18"/>
<rect x="467.25" y="678.919" fill="none" stroke="#000000" stroke-miterlimit="10" width="10" height="19"/>
<rect x="467.25" y="707.919" fill="none" stroke="#000000" stroke-miterlimit="10" width="10" height="18"/>
<rect x="467.25" y="735.919" fill="none" stroke="#000000" stroke-miterlimit="10" width="10" height="18"/>
<rect x="467.25" y="763.919" fill="none" stroke="#000000" stroke-miterlimit="10" width="10" height="18"/>
<rect x="467.25" y="791.919" fill="none" stroke="#000000" stroke-miterlimit="10" width="10" height="18"/>
<rect x="522.25" y="650.919" fill="none" stroke="#000000" stroke-miterlimit="10" width="10" height="18"/>
<rect x="522.25" y="678.919" fill="none" stroke="#000000" stroke-miterlimit="10" width="10" height="19"/>
<rect x="522.25" y="707.919" fill="none" stroke="#000000" stroke-miterlimit="10" width="10" height="18"/>
<rect x="522.25" y="735.919" fill="none" stroke="#000000" stroke-miterlimit="10" width="10" height="18"/>
<rect x="522.25" y="763.919" fill="none" stroke="#000000" stroke-miterlimit="10" width="10" height="18"/>
<rect x="522.25" y="791.919" fill="none" stroke="#000000" stroke-miterlimit="10" width="10" height="18"/>
<rect x="542.25" y="650.919" fill="none" stroke="#000000" stroke-miterlimit="10" width="10" height="18"/>
<rect x="542.25" y="678.919" fill="none" stroke="#000000" stroke-miterlimit="10" width="10" height="19"/>
<rect x="542.25" y="707.919" fill="none" stroke="#000000" stroke-miterlimit="10" width="10" height="18"/>
<rect x="542.25" y="735.919" fill="none" stroke="#000000" stroke-miterlimit="10" width="10" height="18"/>
<rect x="542.25" y="763.919" fill="none" stroke="#000000" stroke-miterlimit="10" width="10" height="18"/>
<rect x="542.25" y="791.919" fill="none" stroke="#000000" stroke-miterlimit="10" width="10" height="18"/>
<rect x="487.25" y="650.919" fill="none" stroke="#000000" stroke-miterlimit="10" width="10" height="18"/>
<rect x="487.25" y="678.919" fill="none" stroke="#000000" stroke-miterlimit="10" width="10" height="19"/>
<rect x="487.25" y="707.919" fill="none" stroke="#000000" stroke-miterlimit="10" width="10" height="18"/>
<rect x="487.25" y="735.919" fill="none" stroke="#000000" stroke-miterlimit="10" width="10" height="18"/>
<rect x="487.25" y="763.919" fill="none" stroke="#000000" stroke-miterlimit="10" width="10" height="18"/>
<rect x="487.25" y="791.919" fill="none" stroke="#000000" stroke-miterlimit="10" width="10" height="18"/>
<rect x="502.25" y="650.919" fill="none" stroke="#000000" stroke-miterlimit="10" width="10" height="18"/>
<rect x="447.25" y="622.919" fill="none" stroke="#000000" stroke-miterlimit="10" width="10" height="18"/>
<rect x="467.25" y="622.919" fill="none" stroke="#000000" stroke-miterlimit="10" width="10" height="18"/>
<rect x="522.25" y="622.919" fill="none" stroke="#000000" stroke-miterlimit="10" width="10" height="18"/>
<rect x="542.25" y="622.919" fill="none" stroke="#000000" stroke-miterlimit="10" width="10" height="18"/>
<rect x="487.25" y="622.919" fill="none" stroke="#000000" stroke-miterlimit="10" width="10" height="18"/>
<rect x="502.25" y="622.919" fill="none" stroke="#000000" stroke-miterlimit="10" width="10" height="18"/>
<rect x="502.25" y="678.919" fill="none" stroke="#000000" stroke-miterlimit="10" width="10" height="19"/>
<rect x="502.25" y="707.919" fill="none" stroke="#000000" stroke-miterlimit="10" width="10" height="18"/>
<rect x="502.25" y="735.919" fill="none" stroke="#000000" stroke-miterlimit="10" width="10" height="18"/>
<rect x="502.25" y="763.919" fill="none" stroke="#000000" stroke-miterlimit="10" width="10" height="18"/>
<rect x="502.25" y="791.919" fill="none" stroke="#000000" stroke-miterlimit="10" width="10" height="18"/>
<rect x="447.25" y="416.919" fill="none" stroke="#000000" stroke-miterlimit="10" width="10" height="18"/>
<rect x="447.25" y="444.919" fill="none" stroke="#000000" stroke-miterlimit="10" width="10" height="18"/>
<rect x="447.25" y="472.919" fill="none" stroke="#000000" stroke-miterlimit="10" width="10" height="18"/>
<rect x="447.25" y="500.919" fill="none" stroke="#000000" stroke-miterlimit="10" width="10" height="18"/>
<rect x="447.25" y="528.919" fill="none" stroke="#000000" stroke-miterlimit="10" width="10" height="18"/>
<rect x="447.25" y="556.919" fill="none" stroke="#000000" stroke-miterlimit="10" width="10" height="18"/>
<rect x="447.25" y="584.919" fill="none" stroke="#000000" stroke-miterlimit="10" width="10" height="18"/>
<rect x="467.25" y="416.919" fill="none" stroke="#000000" stroke-miterlimit="10" width="10" height="18"/>
<rect x="467.25" y="444.919" fill="none" stroke="#000000" stroke-miterlimit="10" width="10" height="18"/>
<rect x="467.25" y="472.919" fill="none" stroke="#000000" stroke-miterlimit="10" width="10" height="18"/>
<rect x="467.25" y="500.919" fill="none" stroke="#000000" stroke-miterlimit="10" width="10" height="18"/>
<rect x="467.25" y="528.919" fill="none" stroke="#000000" stroke-miterlimit="10" width="10" height="18"/>
<rect x="467.25" y="556.919" fill="none" stroke="#000000" stroke-miterlimit="10" width="10" height="18"/>
<rect x="467.25" y="584.919" fill="none" stroke="#000000" stroke-miterlimit="10" width="10" height="18"/>
<rect x="522.25" y="416.919" fill="none" stroke="#000000" stroke-miterlimit="10" width="10" height="18"/>
<rect x="522.25" y="444.919" fill="none" stroke="#000000" stroke-miterlimit="10" width="10" height="18"/>
<rect x="522.25" y="472.919" fill="none" stroke="#000000" stroke-miterlimit="10" width="10" height="18"/>
<rect x="522.25" y="500.919" fill="none" stroke="#000000" stroke-miterlimit="10" width="10" height="18"/>
<rect x="522.25" y="528.919" fill="none" stroke="#000000" stroke-miterlimit="10" width="10" height="18"/>
<rect x="522.25" y="556.919" fill="none" stroke="#000000" stroke-miterlimit="10" width="10" height="18"/>
<rect x="522.25" y="584.919" fill="none" stroke="#000000" stroke-miterlimit="10" width="10" height="18"/>
<rect x="542.25" y="416.919" fill="none" stroke="#000000" stroke-miterlimit="10" width="10" height="18"/>
<rect x="542.25" y="444.919" fill="none" stroke="#000000" stroke-miterlimit="10" width="10" height="18"/>
<rect x="542.25" y="472.919" fill="none" stroke="#000000" stroke-miterlimit="10" width="10" height="18"/>
<rect x="542.25" y="500.919" fill="none" stroke="#000000" stroke-miterlimit="10" width="10" height="18"/>
<rect x="542.25" y="528.919" fill="none" stroke="#000000" stroke-miterlimit="10" width="10" height="18"/>
<rect x="542.25" y="556.919" fill="none" stroke="#000000" stroke-miterlimit="10" width="10" height="18"/>
<rect x="542.25" y="584.919" fill="none" stroke="#000000" stroke-miterlimit="10" width="10" height="18"/>
<rect x="487.25" y="416.919" fill="none" stroke="#000000" stroke-miterlimit="10" width="10" height="18"/>
<rect x="487.25" y="444.919" fill="none" stroke="#000000" stroke-miterlimit="10" width="10" height="18"/>
<rect x="487.25" y="472.919" fill="none" stroke="#000000" stroke-miterlimit="10" width="10" height="18"/>
<rect x="487.25" y="500.919" fill="none" stroke="#000000" stroke-miterlimit="10" width="10" height="18"/>
<rect x="487.25" y="528.919" fill="none" stroke="#000000" stroke-miterlimit="10" width="10" height="18"/>
<rect x="487.25" y="556.919" fill="none" stroke="#000000" stroke-miterlimit="10" width="10" height="18"/>
<rect x="487.25" y="584.919" fill="none" stroke="#000000" stroke-miterlimit="10" width="10" height="18"/>
<rect x="502.25" y="416.919" fill="none" stroke="#000000" stroke-miterlimit="10" width="10" height="18"/>
<rect x="502.25" y="444.919" fill="none" stroke="#000000" stroke-miterlimit="10" width="10" height="18"/>
<rect x="502.25" y="472.919" fill="none" stroke="#000000" stroke-miterlimit="10" width="10" height="18"/>
<rect x="502.25" y="500.919" fill="none" stroke="#000000" stroke-miterlimit="10" width="10" height="18"/>
<rect x="502.25" y="528.919" fill="none" stroke="#000000" stroke-miterlimit="10" width="10" height="18"/>
<rect x="447.25" y="276.919" fill="none" stroke="#000000" stroke-miterlimit="10" width="10" height="18"/>
<rect x="447.25" y="304.919" fill="none" stroke="#000000" stroke-miterlimit="10" width="10" height="18"/>
<rect x="447.25" y="332.919" fill="none" stroke="#000000" stroke-miterlimit="10" width="10" height="18"/>
<rect x="447.25" y="360.919" fill="none" stroke="#000000" stroke-miterlimit="10" width="10" height="18"/>
<rect x="447.25" y="388.919" fill="none" stroke="#000000" stroke-miterlimit="10" width="10" height="18"/>
<rect x="467.25" y="276.919" fill="none" stroke="#000000" stroke-miterlimit="10" width="10" height="18"/>
<rect x="467.25" y="304.919" fill="none" stroke="#000000" stroke-miterlimit="10" width="10" height="18"/>
<rect x="467.25" y="332.919" fill="none" stroke="#000000" stroke-miterlimit="10" width="10" height="18"/>
<rect x="467.25" y="360.919" fill="none" stroke="#000000" stroke-miterlimit="10" width="10" height="18"/>
<rect x="467.25" y="388.919" fill="none" stroke="#000000" stroke-miterlimit="10" width="10" height="18"/>
<rect x="522.25" y="276.919" fill="none" stroke="#000000" stroke-miterlimit="10" width="10" height="18"/>
<rect x="522.25" y="304.919" fill="none" stroke="#000000" stroke-miterlimit="10" width="10" height="18"/>
<rect x="522.25" y="332.919" fill="none" stroke="#000000" stroke-miterlimit="10" width="10" height="18"/>
<rect x="522.25" y="360.919" fill="none" stroke="#000000" stroke-miterlimit="10" width="10" height="18"/>
<rect x="522.25" y="388.919" fill="none" stroke="#000000" stroke-miterlimit="10" width="10" height="18"/>
<rect x="542.25" y="276.919" fill="none" stroke="#000000" stroke-miterlimit="10" width="10" height="18"/>
<rect x="542.25" y="304.919" fill="none" stroke="#000000" stroke-miterlimit="10" width="10" height="18"/>
<rect x="542.25" y="332.919" fill="none" stroke="#000000" stroke-miterlimit="10" width="10" height="18"/>
<rect x="542.25" y="360.919" fill="none" stroke="#000000" stroke-miterlimit="10" width="10" height="18"/>
<rect x="542.25" y="388.919" fill="none" stroke="#000000" stroke-miterlimit="10" width="10" height="18"/>
<rect x="487.25" y="276.919" fill="none" stroke="#000000" stroke-miterlimit="10" width="10" height="18"/>
<rect x="487.25" y="304.919" fill="none" stroke="#000000" stroke-miterlimit="10" width="10" height="18"/>
<rect x="487.25" y="332.919" fill="none" stroke="#000000" stroke-miterlimit="10" width="10" height="18"/>
<rect x="487.25" y="360.919" fill="none" stroke="#000000" stroke-miterlimit="10" width="10" height="18"/>
<rect x="487.25" y="388.919" fill="none" stroke="#000000" stroke-miterlimit="10" width="10" height="18"/>
<rect x="502.25" y="276.919" fill="none" stroke="#000000" stroke-miterlimit="10" width="10" height="18"/>
<rect x="502.25" y="304.919" fill="none" stroke="#000000" stroke-miterlimit="10" width="10" height="18"/>
<rect x="502.25" y="332.919" fill="none" stroke="#000000" stroke-miterlimit="10" width="10" height="18"/>
<rect x="502.25" y="360.919" fill="none" stroke="#000000" stroke-miterlimit="10" width="10" height="18"/>
<rect x="502.25" y="388.919" fill="none" stroke="#000000" stroke-miterlimit="10" width="10" height="18"/>
<rect x="502.25" y="556.919" fill="none" stroke="#000000" stroke-miterlimit="10" width="10" height="18"/>
<rect x="502.25" y="584.919" fill="none" stroke="#000000" stroke-miterlimit="10" width="10" height="18"/>
<polygon fill="none" stroke="#000000" stroke-width="3" stroke-miterlimit="10" points="437.25,927.919 352.25,927.919 
	352.25,842.919 367.25,842.919 367.25,847.919 437.25,847.919 "/>
<polygon fill="none" stroke="#000000" stroke-width="3" stroke-miterlimit="10" points="562.25,927.919 562.25,819.919 
	542.25,819.919 542.25,827.919 457.25,827.919 457.25,819.919 437.25,819.919 437.25,927.919 "/>
<rect x="367.25" y="867.919" fill="none" stroke="#000000" stroke-miterlimit="10" width="25" height="50"/>
<rect x="401.75" y="867.919" fill="none" stroke="#000000" stroke-miterlimit="10" width="25" height="50"/>
<polygon fill="none" stroke="#000000" stroke-width="3" stroke-miterlimit="10" points="562.75,927.919 647.75,927.919 
	647.75,842.919 632.75,842.919 632.75,847.919 562.75,847.919 "/>
<rect x="607.75" y="867.919" fill="none" stroke="#000000" stroke-miterlimit="10" width="25" height="50"/>
<rect x="573.25" y="867.919" fill="none" stroke="#000000" stroke-miterlimit="10" width="25" height="50"/>
<polyline fill="none" stroke="#000000" stroke-miterlimit="10" points="474.5,927.919 474.5,882.919 499.5,882.919 499.5,927.919 
	"/>
<polyline fill="none" stroke="#000000" stroke-miterlimit="10" points="500,927.919 500,882.919 525,882.919 525,927.919 "/>
<path fill="none" stroke="#000000" stroke-miterlimit="10" d="M474.5,888.001c0-13.854,11.229-25.082,25.082-25.082
	c13.853,0,25.082,11.229,25.082,25.082"/>
<line fill="none" stroke="#000000" stroke-width="3" stroke-miterlimit="10" x1="457.25" y1="848.916" x2="542.25" y2="848.916"/>
<polyline fill="none" stroke="#000000" stroke-width="3" stroke-miterlimit="10" points="572.25,452.919 572.25,246.919 
	552.25,246.919 552.25,266.919 522.25,266.919 522.25,256.919 512.25,256.919 512.25,266.919 487.25,266.919 487.25,256.919 
	477.25,256.919 477.25,266.919 447.25,266.919 447.25,246.919 427.25,246.919 427.25,452.919 "/>
<circle fill="none" stroke="#000000" stroke-miterlimit="10" cx="499.75" cy="147.086" r="12.5"/>
<line fill="none" stroke="#000000" stroke-width="3" stroke-miterlimit="10" x1="471.75" y1="124.919" x2="527.75" y2="124.919"/>
<line fill="none" stroke="#000000" stroke-width="3" stroke-miterlimit="10" x1="522.25" y1="55.919" x2="522.25" y2="114.919"/>
<line fill="none" stroke="#000000" stroke-width="3" stroke-miterlimit="10" x1="477.25" y1="114.919" x2="477.25" y2="55.919"/>
<line fill="none" stroke="#000000" stroke-width="3" stroke-miterlimit="10" x1="471.75" y1="104.919" x2="471.75" y2="55.919"/>
<line fill="none" stroke="#000000" stroke-width="3" stroke-miterlimit="10" x1="527.75" y1="104.919" x2="527.75" y2="55.919"/>
<rect x="470.75" y="50.919" fill="none" stroke="#000000" stroke-width="3" stroke-miterlimit="10" width="58" height="5"/>
<rect x="472.75" y="45.919" fill="none" stroke="#000000" stroke-width="3" stroke-miterlimit="10" width="54" height="5"/>
<rect x="474.75" y="40.919" fill="none" stroke="#000000" stroke-width="3" stroke-miterlimit="10" width="50" height="5"/>
<rect x="479.75" y="31.919" fill="none" stroke="#000000" stroke-width="3" stroke-miterlimit="10" width="40" height="9"/>
<rect x="487.75" y="17.919" fill="none" stroke="#000000" stroke-width="3" stroke-miterlimit="10" width="24" height="14"/>
<path fill="none" stroke="#000000" stroke-width="3" stroke-miterlimit="10" d="M511.748,18.015
	c-3.48-2.173-7.592-3.429-11.998-3.429s-8.52,1.256-12,3.43"/>
</svg>
