<?xml version="1.0" encoding="utf-8"?>
<!DOCTYPE svg PUBLIC "-//W3C//DTD SVG 1.1//EN" "http://www.w3.org/Graphics/SVG/1.1/DTD/svg11.dtd">
<svg version="1.1" id="Oomph-Jewel" xmlns="http://www.w3.org/2000/svg" xmlns:xlink="http://www.w3.org/1999/xlink" 
  x="0" y="0" 
  width="900" height="900" 
  viewBox="0 0 900 900" 
  xml:space="preserve">
  <defs>
    <polygon id="outer_shape" points="0,0 728.488,88.849 900,20.054 900,900 0,900"/>
    <clipPath id="clipped_by">
      <use xlink:href="#outer_shape"  overflow="visible"/>
    </clipPath>
  </defs>
  <svg id="background-and-right"
    x="0px" y="0px" 
    width="900px" height="900px" 
    viewBox="0 0 900 900" 
    preserveAspectRatio="xMaxYMin slice"
    clip-path="url(#clipped_by)">
    <g id="background">
      <rect x="-5" y="-5" fill="#D52F26" width="910" height="910"/>
    </g>
    <g id="white-overlay-right">
      <polygon fill="#E03028" shape-rendering="crispEdges" points="728.957,88.903 900,681 900,-7.496"/>
    </g>
  </svg>
  <svg id="background-and-left"
    x="0px" y="0px" 
    width="900px" height="900px" 
    viewBox="0 0 900 900" 
    preserveAspectRatio="xMinYMin slice"
    clip-path="url(#clipped_by)">
    <g id="black-overlay">
      <polygon fill="#E03028" shape-rendering="crispEdges" points="58.683,142.696 -0.054,376.445 0,900 900,900 900,874.499 	"/>
    	<polygon fill="#C12A22" shape-rendering="crispEdges" points="94.66,0 0,0 0,91.033 58.683,143.514 	"/>
    	<polygon fill="#E03028" shape-rendering="crispEdges" points="0,91.033 0,180 49.38,180 58.683,143.105 	"/>
    	<polygon fill="#C82C24" shape-rendering="crispEdges" points="0,91.033 -0.054,376.445 58.683,143.105 	"/>
    </g>
  </svg>
</svg>
